<svg xmlns="http://www.w3.org/2000/svg" width="1600" height="1000" viewBox="0 0 1600 1000" role="img" aria-labelledby="title desc">
  <title id="title">Civic Relay project preview</title><desc id="desc">An accessible civic service flow diagram across navy and red planes.</desc>
  <rect width="1600" height="1000" fill="#122b3d"/><g stroke="#d79d40" stroke-width="16" fill="none"><path d="M240 260h360v220h360v240h390"/><path d="M600 480v300"/></g><g fill="#fffaf0" stroke="#d79d40" stroke-width="10"><path d="M126 190h228v34h34v180h-34v34H126v-34H92V224h34z"/><path d="M486 410h228v34h34v180h-34v34H486v-34h-34V444h34z"/><path d="M846 650h228v34h34v180h-34v34H846v-34h-34V684h34z"/></g><path d="M1230 610h230v34h34v180h-34v34h-230v-34h-34V644h34z" fill="#9c1e1b"/><g fill="#122b3d"><rect x="158" y="280" width="164" height="16"/><rect x="518" y="500" width="164" height="16"/><rect x="878" y="740" width="164" height="16"/></g></svg>
